<?xml version="1.0" encoding="UTF-8"?>
<svg id="Layer_2" data-name="Layer 2" xmlns="http://www.w3.org/2000/svg" viewBox="0 0 55.4 55.13">
  <defs>
    <style>
      .cls-1 {
        fill: none;
        stroke: #302745;
        stroke-linecap: round;
        stroke-linejoin: round;
        stroke-width: 8px;
      }
    </style>
  </defs>
  <g id="Layer_1-2" data-name="Layer 1">
    <path class="cls-1" d="M18.03,49.49c-4.72-1.93-7.76-5.17-9.01-6.66-3.3-3.93-4.53-7.94-5.01-10.03,1.77,.39,3.58,.59,5.4,.6,6.36,0,12.46-2.54,16.96-7.04,4.5-4.5,7.03-10.6,7.04-16.96,0-1.82-.21-3.63-.6-5.4,5.29,1.22,10.01,4.2,13.39,8.45,.73,.92,5.27,6.8,5.21,14.95,0,.51-.02,.92-.04,1.12-.34,5.62-3.25,12.22-8.54,16.74-6.87,5.87-16.87,7.46-24.79,4.22Z"/>
  </g>
</svg>