<svg width="81" height="59" viewBox="0 0 81 59" fill="none" xmlns="http://www.w3.org/2000/svg">
<path d="M25.5 29.5C25.5 24.4566 26.9956 19.5264 29.7975 15.333C32.5995 11.1395 36.5821 7.87112 41.2416 5.94108C45.9011 4.01105 51.0283 3.50606 55.9748 4.48999C60.9213 5.47391 65.465 7.90255 69.0312 11.4688C72.5975 15.035 75.0261 19.5787 76.01 24.5252C76.994 29.4717 76.489 34.5989 74.5589 39.2584C72.6289 43.918 69.3605 47.9005 65.167 50.7025C60.9736 53.5045 56.0434 55 51 55H21C16.6239 55 12.4271 53.2616 9.33274 50.1673C6.23839 47.0729 4.5 42.8761 4.5 38.5C4.5 34.1239 6.23839 29.9271 9.33274 26.8327C12.4271 23.7384 16.6239 22 21 22C22.8259 21.9906 24.6398 22.295 26.3625 22.9" stroke="#302745" stroke-width="8" stroke-linecap="round" stroke-linejoin="round"/>
</svg>
