<?xml version="1.0" encoding="UTF-8"?>
<svg id="Layer_2" data-name="Layer 2" xmlns="http://www.w3.org/2000/svg" viewBox="0 0 61.93 61.89">
  <defs>
    <style>
      .cls-1 {
        fill: none;
        stroke: #302745;
        stroke-linecap: round;
        stroke-linejoin: round;
        stroke-width: 8px;
      }
    </style>
  </defs>
  <g id="Layer_1-2" data-name="Layer 1">
    <path class="cls-1" d="M31.97,12.98l.49-8.98"/>
    <path class="cls-1" d="M18.96,17.56l-6.01-6.72"/>
    <path class="cls-1" d="M12.98,29.94l-8.98-.49"/>
    <path class="cls-1" d="M44.36,18.96l6.72-6.01"/>
    <path class="cls-1" d="M14.98,39.31c-1.48-2.89-2.17-6.12-2-9.37,.25-4.39,2.09-8.53,5.17-11.65,3.09-3.12,7.21-5.01,11.59-5.3,4.38-.29,8.72,1.02,12.2,3.71,3.48,2.68,5.85,6.54,6.68,10.86"/>
    <path class="cls-1" d="M46.93,22.6c1.48,2.89,2.17,6.12,2,9.37-.25,4.39-2.09,8.53-5.17,11.65-3.09,3.12-7.21,5.01-11.59,5.3-4.38,.29-8.72-1.02-12.2-3.71-3.48-2.68-5.85-6.54-6.68-10.86"/>
    <path class="cls-1" d="M29.53,48.91l-.49,8.98"/>
    <path class="cls-1" d="M42.94,44.4l6.01,6.72"/>
    <path class="cls-1" d="M48.95,32.16l8.98,.49"/>
    <path class="cls-1" d="M16.27,41.38l-6.72,6.01"/>
  </g>
</svg>