<?xml version="1.0" encoding="UTF-8"?>
<svg id="Layer_2" data-name="Layer 2" xmlns="http://www.w3.org/2000/svg" viewBox="0 0 88.4 82.4">
  <defs>
    <style>
      .cls-1 {
        fill: none;
        stroke: #fff;
        stroke-linecap: round;
        stroke-linejoin: round;
        stroke-width: 8px;
      }
    </style>
  </defs>
  <g id="Layer_1-2" data-name="Layer 1">
    <path class="cls-1" d="M33.4,52.9c0-5.04,1.5-9.97,4.3-14.17,2.8-4.19,6.78-7.46,11.44-9.39,4.66-1.93,9.79-2.43,14.73-1.45,4.95,.98,9.49,3.41,13.06,6.98,3.57,3.57,5.99,8.11,6.98,13.06,.98,4.95,.48,10.07-1.45,14.73-1.93,4.66-5.2,8.64-9.39,11.44-4.19,2.8-9.12,4.3-14.17,4.3H28.9c-4.38,0-8.57-1.74-11.67-4.83-3.09-3.09-4.83-7.29-4.83-11.67s1.74-8.57,4.83-11.67c3.09-3.09,7.29-4.83,11.67-4.83,1.83,0,3.64,.29,5.36,.9"/>
    <path class="cls-1" d="M18.03,49.49c-3.49-1.48-6.58-3.76-9.01-6.66-2.44-2.9-4.15-6.33-5.01-10.02,1.77,.39,3.58,.59,5.4,.6,6.36,0,12.46-2.54,16.96-7.04,4.5-4.5,7.03-10.6,7.04-16.96,0-1.82-.21-3.63-.6-5.4,5.29,1.22,10.01,4.2,13.39,8.45,3.38,4.25,5.22,9.52,5.21,14.95,0,.38,0,.75-.04,1.12"/>
  </g>
</svg>