<?xml version="1.0" encoding="UTF-8"?>
<svg id="Layer_2" data-name="Layer 2" xmlns="http://www.w3.org/2000/svg" viewBox="0 0 26 29">
  <defs>
    <style>
      .cls-1 {
        fill: none;
        stroke: #fff;
        stroke-linecap: round;
        stroke-linejoin: round;
        stroke-width: 2px;
      }
    </style>
  </defs>
  <g id="Layer_1-2" data-name="Layer 1">
    <path class="cls-1" d="M13,28l3.29-5"/>
    <path class="cls-1" d="M9.34,24l3.95-6"/>
    <path class="cls-1" d="M8,9.5c0-1.68,.5-3.33,1.43-4.72,.93-1.4,2.26-2.49,3.81-3.13,1.55-.64,3.26-.81,4.91-.48,1.65,.33,3.16,1.14,4.35,2.33,1.19,1.19,2,2.7,2.33,4.35,.33,1.65,.16,3.36-.48,4.91-.64,1.55-1.73,2.88-3.13,3.81-1.4,.93-3.04,1.43-4.72,1.43H6.5c-1.46,0-2.86-.58-3.89-1.61-1.03-1.03-1.61-2.43-1.61-3.89s.58-2.86,1.61-3.89c1.03-1.03,2.43-1.61,3.89-1.61,.61,0,1.21,.1,1.79,.3"/>
  </g>
</svg>